<?xml version="1.0" encoding="UTF-8"?>
<svg version="1.1" xmlns="http://www.w3.org/2000/svg" width="512" height="512">
<path d="M0 0 C9.18557375 5.54655848 16.6418833 14.50690586 24.22229385 22.04610729 C25.36657065 23.18081846 26.51101007 24.31536566 27.65559769 25.4497633 C31.37467321 29.13780087 35.08851343 32.83108387 38.80139542 36.52535534 C39.75376256 37.4727765 39.75376256 37.4727765 40.72536945 38.43933749 C46.72559893 44.40883075 52.72379383 50.38036151 58.71717834 56.3567276 C66.34385337 63.9614774 73.98043522 71.5559691 81.63078856 79.13690025 C87.03351961 84.49227963 92.42460659 89.85920854 97.80733705 95.23468941 C101.01260957 98.4350284 104.22264888 101.63020172 107.44536972 104.81297779 C110.47599105 107.80651498 113.4918189 110.81422226 116.49733925 113.83295345 C117.59578938 114.93135003 118.69929566 116.02471978 119.80844688 117.11230946 C127.80976068 124.96643938 136.1261236 134.11338046 136.26233292 145.98629284 C136.22752823 146.97049206 136.22752823 146.97049206 136.19202042 147.97457409 C136.21522354 148.6307069 136.23842667 149.28683971 136.26233292 149.96285534 C136.10595738 163.59358979 125.76514091 173.07682839 116.72131729 181.92257214 C114.69024466 183.91381503 112.69035058 185.932952 110.69202042 187.95699596 C101.64390263 196.99853768 93.28564939 204.50747316 79.87952042 204.78707409 C74.01990432 204.76887652 69.68584445 203.89343346 64.43030167 201.34957409 C62.34642616 200.27317465 62.34642616 200.27317465 59.44202042 200.47457409 C57.87622881 202.63223492 56.5325218 204.74251724 55.19202042 207.03707409 C54.29994539 208.51382105 53.40525408 209.98898966 52.50842667 211.46285534 C52.02003311 212.268036 51.53163956 213.07321667 51.0284462 213.90279675 C48.15098106 218.56749631 45.13487032 223.14164596 42.12952042 227.72457409 C40.83649416 229.70109897 39.54352553 231.67766155 38.25061417 233.65426159 C37.61365616 234.62718151 36.97669815 235.60010143 36.32043839 236.60250378 C33.43598138 241.01279129 30.56314645 245.43060034 27.69202042 249.84957409 C27.15859024 250.67038464 26.62516006 251.49119518 26.07556534 252.33687878 C23.14118498 256.85381078 20.21111341 261.3735012 17.28601456 265.89644909 C16.39492497 267.27427917 15.50348997 268.65188592 14.61169815 270.02926159 C12.11863967 273.87990826 9.63124218 277.73409889 7.14905167 281.59176159 C6.01763404 283.34442566 4.88612514 285.09703081 3.75452042 286.84957409 C3.24405167 287.64557018 2.73358292 288.44156628 2.20764542 289.26168346 C0.64211295 291.68205272 -0.95569256 294.07838272 -2.55797958 296.47457409 C-3.10240676 297.31012294 -3.64683393 298.14567179 -4.2077589 299.0065403 C-7.76617224 304.21477157 -11.3431905 308.35079564 -16.28382492 312.29368114 C-26.12331885 320.2739834 -34.31453379 327.62846704 -35.87932462 340.74350327 C-36.55042656 348.65427418 -36.35221645 356.58465763 -36.09196925 364.50950217 C-35.97455507 368.84791218 -35.99078074 373.18602834 -35.99146652 377.52573681 C-35.97314474 385.7053607 -35.83858393 393.87855942 -35.65980011 402.05607945 C-35.46176643 411.38127289 -35.39701049 420.70600104 -35.34218013 430.03296363 C-35.22668045 449.18326796 -34.94792937 468.32798686 -34.55797958 487.47457409 C-33.55420273 487.45886364 -32.55042587 487.44315319 -31.51623154 487.42696667 C-27.77966004 487.37252295 -24.04312337 487.33817183 -20.3062706 487.30977917 C-18.6913017 487.29472533 -17.07637345 487.27427761 -15.46154404 487.24825573 C-13.13551403 487.21172123 -10.81002617 487.19481394 -8.48376083 487.18160534 C-7.40690773 487.15837955 -7.40690773 487.15837955 -6.30830002 487.13468456 C-0.86213804 487.13287064 2.03226943 488.60793985 6.22717667 491.85738659 C8.3559361 494.69116924 7.90007729 497.60844474 7.80530167 501.02535534 C7.30045056 504.42902892 5.95520534 506.18314078 3.44202042 508.47457409 C0.6885178 509.8513254 -1.51625287 509.60389973 -4.59977055 509.60879517 C-5.8964923 509.61325301 -7.19321406 509.61771085 -8.52923042 509.62230378 C-9.98195415 509.62221448 -11.43467787 509.62202461 -12.88740158 509.62174511 C-14.41999092 509.62504266 -15.95257938 509.62876799 -17.48516673 509.63288659 C-21.71238173 509.64292699 -25.93958253 509.64662665 -30.16680777 509.6492759 C-34.71974585 509.65317288 -39.27267261 509.66275158 -43.82560349 509.67148876 C-54.82822332 509.69126962 -65.83084411 509.70132111 -76.83347729 509.71021655 C-82.01056814 509.71459651 -87.18765796 509.71996405 -92.364748 509.72520542 C-109.56700077 509.74221878 -126.7692529 509.7567142 -143.97151279 509.76395416 C-148.43759093 509.76586416 -152.90366905 509.76778448 -157.36974716 509.7697401 C-158.4798133 509.77022384 -159.58987944 509.77070759 -160.73358395 509.77120598 C-178.7264539 509.77951093 -196.71925746 509.8048552 -214.7120984 509.83732078 C-233.17093977 509.8703566 -251.62974736 509.88839974 -270.08861846 509.8915984 C-280.458313 509.89376665 -290.82791072 509.90256129 -301.19757652 509.92805958 C-310.02663708 509.94971907 -318.85557731 509.95784047 -327.68466143 509.9480928 C-332.19160686 509.94353435 -336.69830378 509.94552354 -341.20521545 509.96485424 C-345.32889886 509.98238895 -349.45215068 509.98156775 -353.57583805 509.96595695 C-355.06980602 509.96356605 -356.56380312 509.96798065 -358.05772636 509.9797856 C-360.08465313 509.99481373 -362.11172657 509.98289129 -364.1386652 509.96955872 C-365.26573016 509.97053552 -366.39279511 509.97151233 -367.55401355 509.97251874 C-371.23864611 509.36174516 -372.90189387 508.04803933 -375.55797958 505.47457409 C-377.4165324 501.75746846 -377.13706398 497.52180128 -376.55797958 493.47457409 C-374.0312192 490.12832385 -372.51864416 488.79479562 -368.55797958 487.47457409 C-365.97167734 487.38975636 -363.41319902 487.3585918 -360.82751083 487.37691784 C-359.70187981 487.37904026 -359.70187981 487.37904026 -358.55350876 487.38120556 C-356.15912498 487.38679849 -353.76483505 487.39934965 -351.37047958 487.41207409 C-349.74613198 487.41709 -348.1217829 487.42165275 -346.49743271 487.42574596 C-342.51757889 487.43676561 -338.53779515 487.45402536 -334.55797958 487.47457409 C-334.56074496 486.31443955 -334.56351034 485.15430502 -334.56635952 483.95901489 C-334.63132134 456.42493019 -334.68079525 428.89085315 -334.71117557 401.35670765 C-334.71492773 397.96834333 -334.71881069 394.57997918 -334.72277451 391.1916151 C-334.72356144 390.51704772 -334.72434837 389.84248033 -334.72515915 389.14747151 C-334.73821603 378.2223945 -334.76187142 367.2973648 -334.78943797 356.37231586 C-334.81748432 345.16370311 -334.83392963 333.95511402 -334.84024507 322.74646443 C-334.84416129 316.4500967 -334.85338661 310.15383632 -334.87516975 303.85750294 C-334.89549775 297.93390812 -334.90182081 292.01046511 -334.89730263 286.08683872 C-334.89812948 283.91036562 -334.90411694 281.73388756 -334.91559601 279.55744457 C-334.93048222 276.59000217 -334.92694716 273.62313589 -334.91874313 270.65568066 C-334.93185092 269.3584955 -334.93185092 269.3584955 -334.94522351 268.03510457 C-334.90987046 263.31672901 -334.52773576 260.35724345 -331.55797958 256.47457409 C-331.12930084 255.88536678 -330.7006221 255.29615948 -330.25895309 254.6890974 C-327.67347284 252.8430216 -325.48947844 253.07311534 -322.34240341 253.04220104 C-321.06130188 253.02240688 -319.78020035 253.00261272 -318.46027756 252.98221874 C-317.06185681 252.97544895 -315.66343446 252.96900208 -314.26501083 252.96285534 C-312.83438698 252.94601055 -311.40377794 252.92786058 -309.97318649 252.90845776 C-306.21017716 252.86092927 -302.4472279 252.83113868 -298.68401718 252.80501842 C-294.84305582 252.77522703 -291.00230151 252.72869191 -287.16149521 252.68355846 C-279.62709267 252.59749309 -272.09267514 252.53016256 -264.55797958 252.47457409 C-264.7694664 251.49577282 -264.98095322 250.51697155 -265.19884872 249.50850964 C-267.16035463 240.04341237 -268.07409001 230.98524871 -267.99547958 221.28707409 C-267.99210587 220.62058849 -267.98873215 219.9541029 -267.9852562 219.26742077 C-267.76123116 188.46833049 -257.67330367 159.00769651 -237.55797958 135.47457409 C-237.12227646 134.96056042 -236.68657333 134.44654675 -236.23766708 133.9169569 C-218.72148976 113.46861247 -196.06787878 99.60247111 -170.20641708 92.45504284 C-169.15146545 92.16181637 -168.09651382 91.8685899 -167.00959396 91.56647778 C-150.87885219 87.13416921 -134.64884402 83.07056708 -118.43029404 78.97432995 C-113.63771376 77.76373595 -108.8470319 76.54579717 -104.05676937 75.32606888 C-100.33706561 74.37998383 -96.61626738 73.43826365 -92.89513206 72.49782658 C-91.12571549 72.04997012 -89.35667575 71.60062202 -87.58802986 71.14973164 C-85.13797223 70.52568826 -82.68646883 69.90768198 -80.23449326 69.29122448 C-79.51203918 69.10585629 -78.78958511 68.92048809 -78.04523849 68.72950268 C-74.7347944 67.9036516 -72.00044086 67.47457409 -68.55797958 67.47457409 C-69.03751083 66.24094128 -69.03751083 66.24094128 -69.52672958 64.98238659 C-70.6810764 61.0558584 -70.99872946 57.40820728 -71.05797958 53.34957409 C-71.11985458 52.3247694 -71.11985458 52.3247694 -71.18297958 51.27926159 C-71.34289468 40.40503508 -64.93778004 32.38469108 -57.79626083 24.91598034 C-55.84582675 22.93410113 -53.87712728 20.97391209 -51.8922081 19.02657604 C-49.87027763 17.03687536 -47.88251617 15.01701704 -45.89587021 12.99215221 C-33.39899428 0.44869287 -17.88265399 -8.9121322 0 0 Z M-37.49547958 37.28707409 C-38.4621086 38.25013322 -39.42890449 39.2130249 -40.39587021 40.17574596 C-41.30401474 41.08517956 -42.21215927 41.99461315 -43.14782333 42.93160534 C-43.9714537 43.75636364 -44.79508408 44.58112194 -45.64367294 45.43087292 C-48.04677431 47.99640812 -48.49737588 49.09580093 -49.05797958 52.59957409 C-47.7823894 62.48539799 -34.46702594 71.64035495 -27.55797958 78.47457409 C-25.07578892 80.92988182 -22.59713316 83.38868256 -20.12047958 85.84957409 C-19.28891342 86.66869274 -19.28891342 86.66869274 -18.44054794 87.50435925 C-15.62810499 90.29951691 -12.94351604 93.15212737 -10.36304855 96.16355419 C-6.5452774 100.54422894 -2.51866464 104.68262198 1.57703018 108.80245495 C2.35845383 109.59205608 3.13987747 110.38165722 3.94498062 111.19518566 C6.50478918 113.77959946 9.06854232 116.36004183 11.63342667 118.93941784 C12.95302037 120.26699706 12.95302037 120.26699706 14.29927254 121.62139606 C17.99398082 125.33726276 21.68969832 129.05211627 25.38933277 132.76307869 C30.66938717 138.05941877 35.94071507 143.36412115 41.20047337 148.68062013 C45.36245106 152.88594929 49.53806928 157.07755634 53.71858406 161.26446247 C55.4902652 163.04286693 57.25768035 164.82553179 59.02072716 166.61249638 C61.48106183 169.10432712 63.95657024 171.58005128 66.43640518 174.05245495 C67.16124603 174.79370113 67.88608688 175.53494732 68.63289261 176.29865551 C71.65475421 179.283533 73.65158802 181.22873685 77.75580215 182.50521374 C83.50416659 182.43964652 87.18783334 179.07181578 91.06026077 175.22187328 C91.59487427 174.67491299 92.12948776 174.12795269 92.68030167 173.56441784 C93.52965538 172.71225437 93.52965538 172.71225437 94.39616776 171.84287548 C95.58369081 170.64866464 96.76762826 169.45087856 97.94812393 168.24972057 C99.75925121 166.40726146 101.58099773 164.575853 103.40491104 162.74605846 C104.55983693 161.58196864 105.71415567 160.41727608 106.86780167 159.25191784 C107.68490364 158.42844105 107.68490364 158.42844105 108.51851273 157.58832836 C111.60181979 154.44590509 113.23960635 152.73966203 113.94202042 148.34957409 C112.73800385 139.01844568 101.51107085 131.40121907 95.03064346 124.9338026 C93.88980694 123.79160865 92.74918274 122.64920259 91.6087532 121.50660229 C88.53294488 118.42626348 85.45401639 115.34906172 82.37435126 112.27257943 C79.14669189 109.04746272 75.92148532 105.8198946 72.69588089 102.59272289 C67.28680354 97.18183098 61.87563128 91.77304083 56.46326065 86.36544323 C50.20205214 80.10969249 43.94447645 73.85032518 37.68874329 67.58909947 C32.31210977 62.20793417 26.93353786 56.82871217 21.55332786 51.4511227 C18.34193123 48.24128637 15.13121727 45.03077504 11.92225075 41.8185091 C8.91133559 38.80471376 5.89800095 35.79335899 2.88274956 32.78390217 C1.77488352 31.67736223 0.66787469 30.56996332 -0.43822861 29.46166134 C-1.943448 27.95372501 -3.45168822 26.4488779 -4.96076584 24.94480419 C-5.80525441 24.10069264 -6.64974298 23.2565811 -7.51982212 22.38689041 C-10.08153326 19.98334598 -11.1813468 19.53483533 -14.68297958 18.97457409 C-23.74873091 20.14434845 -31.31141485 31.07729599 -37.49547958 37.28707409 Z M-60.18175888 87.36715221 C-60.98227676 87.56888042 -61.78279465 87.77060863 -62.60757065 87.97844982 C-65.28276464 88.65298752 -67.95749932 89.32932654 -70.63219833 90.00582409 C-72.50944982 90.47995162 -74.3867134 90.95403124 -76.26398849 91.4280653 C-80.22816155 92.42939611 -84.19209356 93.43167485 -88.15587997 94.43453503 C-92.16333177 95.44833923 -96.17113473 96.46073399 -100.17931747 97.4716444 C-128.55036846 104.62660393 -128.55036846 104.62660393 -156.86266708 112.00973034 C-158.04853912 112.32240856 -159.23441116 112.63508678 -160.45621872 112.9572401 C-191.22941738 121.18715783 -215.43548975 138.83264788 -231.55797958 166.47457409 C-245.68840268 191.37103382 -249.11526357 219.74147394 -242.55797958 247.47457409 C-241.90352243 249.4786026 -241.23874348 251.4793285 -240.55797958 253.47457409 C-233.139214 253.77944303 -225.72206594 253.98920374 -218.2984581 254.13375378 C-215.77505779 254.19401602 -213.2520751 254.2758485 -210.73009872 254.37984753 C-196.80884585 255.68053559 -196.80884585 255.68053559 -184.4793663 250.93673229 C-182.70268435 247.81494424 -181.60035371 244.90124216 -180.55797958 241.47457409 C-170.90970643 229.38389217 -155.91164431 220.30092452 -140.56579208 217.75973034 C-120.43521249 215.85124682 -102.30081211 218.99766856 -85.87047958 231.59957409 C-79.12179398 237.34917997 -70.71832415 245.78313394 -69.93297958 254.97457409 C-70.07741554 259.45164874 -70.91466365 261.47009617 -73.98449326 264.70846081 C-74.80734818 265.57871899 -75.63020309 266.44897717 -76.47799301 267.3456068 C-77.50198402 268.39121854 -78.52890956 269.43396062 -79.55797958 270.47457409 C-80.4608338 271.38933388 -80.4608338 271.38933388 -81.38192749 272.32257366 C-85.83769483 276.82073892 -90.33079211 281.28057666 -94.83257103 285.73263454 C-97.40451343 288.27766037 -99.97182153 290.82727559 -102.53776169 293.37835217 C-109.82646074 300.62455979 -117.11793826 307.867899 -124.42541122 315.09517956 C-128.91184409 319.53303973 -133.38840803 323.98064959 -137.85872078 328.43474483 C-139.55708986 330.12323981 -141.25910257 331.80807832 -142.96486473 333.48910427 C-145.34810042 335.83851039 -147.71854968 338.20015251 -150.08654404 340.56490612 C-151.13779968 341.59223354 -151.13779968 341.59223354 -152.21029282 342.64031506 C-158.83593638 349.30735379 -162.65811593 356.12806393 -162.87047958 365.66207409 C-162.75573651 374.2869284 -160.58033963 378.76764265 -154.49547958 384.78707409 C-148.49848018 389.78949723 -141.80191367 391.90138089 -133.99547958 391.47457409 C-124.40464725 389.71094935 -117.57152278 384.22174144 -110.95251083 377.39254284 C-109.80005119 376.2330286 -109.80005119 376.2330286 -108.62430954 375.05008984 C-106.19434651 372.59896405 -103.78260039 370.13074597 -101.37047958 367.66207409 C-99.74203227 366.01709432 -98.11248354 364.37320412 -96.48180771 362.73043346 C-88.16115636 354.38770738 -88.16115636 354.38770738 -80.26086044 345.65328503 C-76.01026945 340.73898186 -71.35470317 336.23875812 -66.709095 331.70335102 C-63.91332011 328.96965209 -61.13375089 326.21951275 -58.35094833 323.47262096 C-54.83976759 320.00900876 -51.32434367 316.55004546 -47.79284286 313.10714245 C-29.78775064 295.77381453 -29.78775064 295.77381453 -15.60711288 275.31771374 C-13.62414936 271.83400133 -11.3835741 268.51084558 -9.18297958 265.16207409 C-8.67766708 264.38090221 -8.17235458 263.59973034 -7.65172958 262.79488659 C-1.41360551 253.15778466 4.84892387 243.53652733 11.10803604 233.91305065 C12.7611875 231.3711603 14.41413781 228.82913927 16.06702042 226.28707409 C16.87562515 225.04377331 16.87562515 225.04377331 17.70056534 223.77535534 C20.25701578 219.84295011 22.80971446 215.90822769 25.35217667 211.96676159 C25.81575577 211.24859264 26.27933487 210.5304237 26.75696182 209.79049206 C27.6604673 208.3894318 28.56252505 206.9874367 29.46301651 205.58443737 C31.71414602 202.08981092 34.00758794 198.63587403 36.38342667 195.22457409 C36.85498184 194.54112926 37.32653702 193.85768444 37.81238174 193.15352917 C38.70896091 191.85935181 39.61584612 190.57223264 40.53454971 189.29366589 C42.82938467 186.18121295 42.82938467 186.18121295 43.23336601 182.48946285 C42.31526001 180.15182241 41.26341043 178.92878841 39.48361588 177.16213512 C38.5375145 176.2120155 38.5375145 176.2120155 37.57229996 175.24270153 C36.87623642 174.55899487 36.18017288 173.8752882 35.46301651 173.17086315 C34.73284317 172.44185802 34.00266983 171.7128529 33.25037003 170.96175671 C30.82895307 168.54754059 28.39719253 166.14401858 25.96545792 163.74019909 C24.27899213 162.06187112 22.59326199 160.38280365 20.90823746 158.70302868 C16.46211338 154.27404807 12.00751254 149.85369604 7.55066299 145.43551159 C0.43623538 138.38017496 -6.66574443 131.31231571 -13.76694489 124.24367046 C-16.24293159 121.78157611 -18.72273879 119.32338259 -21.2031517 116.86574841 C-22.73639204 115.34254197 -24.26954863 113.81925123 -25.80260849 112.29586315 C-26.82848572 111.28244854 -26.82848572 111.28244854 -27.87508774 110.24856091 C-31.75420575 106.3871767 -35.43862068 102.41685118 -39.00107002 98.26088619 C-41.36737602 95.54591729 -43.88265175 93.0178373 -46.43297958 90.47457409 C-46.91766708 89.9860194 -47.40235458 89.49746471 -47.90172958 88.99410534 C-52.46218102 84.44639259 -54.20032065 85.85257316 -60.18175888 87.36715221 Z M-160.55797958 252.47457409 C-160.55797958 252.80457409 -160.55797958 253.13457409 -160.55797958 253.47457409 C-139.43797958 253.47457409 -118.31797958 253.47457409 -96.55797958 253.47457409 C-98.26066264 248.36652491 -103.08930776 246.17670485 -107.55797958 243.47457409 C-126.05101764 234.54781941 -146.08246045 237.80656135 -160.55797958 252.47457409 Z M-312.55797958 275.47457409 C-312.55797958 345.43457409 -312.55797958 415.39457409 -312.55797958 487.47457409 C-228.07797958 487.47457409 -143.59797958 487.47457409 -56.55797958 487.47457409 C-56.55797958 443.25457409 -56.55797958 399.03457409 -56.55797958 353.47457409 C-62.38524633 358.42602363 -62.38524633 358.42602363 -67.46813583 363.80269909 C-73.64519082 370.7896666 -80.21175689 377.38769242 -86.78673935 383.99849987 C-88.26193198 385.48526967 -89.73263196 386.97651035 -91.19884872 388.47213268 C-106.88338605 404.46976605 -106.88338605 404.46976605 -115.55797958 408.47457409 C-116.53766708 408.95668346 -117.51735458 409.43879284 -118.52672958 409.93551159 C-131.41310646 414.58892546 -146.04811452 414.0670172 -158.55797958 408.47457409 C-171.18391781 401.60651529 -179.04399762 390.96256801 -183.55797958 377.47457409 C-186.53293891 362.86172354 -183.62682389 348.86482947 -175.77646637 336.233531 C-171.70850252 330.36118736 -166.28686703 325.50954486 -161.18688583 320.55269909 C-159.89512558 319.27470452 -158.60478008 317.99527855 -157.31577682 316.71450329 C-153.95378077 313.38080098 -150.57456833 310.06513888 -147.19073105 306.75362682 C-143.05624078 302.70141436 -138.94127643 298.62939057 -134.82493877 294.55875301 C-131.62951012 291.3990693 -128.43079958 288.24298376 -125.22144699 285.09743786 C-124.63730026 284.52324108 -124.05315353 283.9490443 -123.45130539 283.35744762 C-122.35650952 282.28139332 -121.25982301 281.20725814 -120.16097641 280.13534069 C-118.94103412 278.93402357 -117.74641665 277.70706724 -116.55797958 276.47457409 C-116.55797958 276.14457409 -116.55797958 275.81457409 -116.55797958 275.47457409 C-181.23797958 275.47457409 -245.91797958 275.47457409 -312.55797958 275.47457409 Z " fill="#000000" transform="translate(376.55797958374023,2.525425910949707)"/>
</svg>
